<?xml version="1.0" encoding="UTF-8" standalone="no"?>
<!DOCTYPE svg PUBLIC "-//W3C//DTD SVG 1.1//EN"
 "http://www.w3.org/Graphics/SVG/1.1/DTD/svg11.dtd">
<!-- Generated by graphviz version 2.42.4 (0)
 -->
<!-- Title: MaestroV2Llm Pages: 1 -->
<svg width="693pt" height="1022pt"
 viewBox="0.00 0.00 693.00 1022.00" xmlns="http://www.w3.org/2000/svg" xmlns:xlink="http://www.w3.org/1999/xlink">
<g id="graph0" class="graph" transform="scale(1 1) rotate(0) translate(4 1018)">
<title>MaestroV2Llm</title>
<polygon fill="white" stroke="transparent" points="-4,4 -4,-1018 689,-1018 689,4 -4,4"/>
<text text-anchor="start" x="69.5" y="-993.4" font-family="Helvetica,sans-Serif" font-weight="bold" font-size="22.00">Hibrit LLM Erişimi — LLM Gateway (LlmPort)</text>
<text text-anchor="start" x="60" y="-977.8" font-family="Helvetica,sans-Serif" font-size="14.00"> &#160;&#160;&#160;&#160;&#160;&#160;&#160;</text>
<text text-anchor="start" x="97" y="-977.8" font-family="Helvetica,sans-Serif" font-size="12.00" fill="#64748b">hangi çağrı nereye gider: POLİTİKA karar verir (rol + veri sınıfı) · kod değil konfigürasyon</text>
<text text-anchor="start" x="222.5" y="-963.8" font-family="Helvetica,sans-Serif" font-size="14.00"> &#160;&#160;&#160;&#160;&#160;&#160;&#160;</text>
<text text-anchor="start" x="259.5" y="-963.8" font-family="Helvetica,sans-Serif" font-size="10.00" fill="#94a3b8">TASLAK · maestro/plan/masterplan.md §5</text>
<g id="clust1" class="cluster">
<title>cluster_gw</title>
<path fill="#fffbeb" stroke="#d97706" stroke-width="2.6" d="M156,-335C156,-335 560,-335 560,-335 566,-335 572,-341 572,-347 572,-347 572,-832 572,-832 572,-838 566,-844 560,-844 560,-844 156,-844 156,-844 150,-844 144,-838 144,-832 144,-832 144,-347 144,-347 144,-341 150,-335 156,-335"/>
<text text-anchor="middle" x="358" y="-828.8" font-family="Helvetica,sans-Serif" font-weight="bold" font-size="14.00" fill="#92400e"> &#160;LLM GATEWAY &#160;— &#160;tüm model trafiği TEK noktadan &#160;</text>
</g>
<g id="clust2" class="cluster">
<title>cluster_cloud</title>
<path fill="#fef2f2" stroke="#dc2626" stroke-width="2.2" d="M20,-8C20,-8 307,-8 307,-8 313,-8 319,-14 319,-20 319,-20 319,-268 319,-268 319,-274 313,-280 307,-280 307,-280 20,-280 20,-280 14,-280 8,-274 8,-268 8,-268 8,-20 8,-20 8,-14 14,-8 20,-8"/>
<text text-anchor="middle" x="163.5" y="-265.6" font-family="Helvetica,sans-Serif" font-weight="bold" font-size="13.00" fill="#991b1b"> &#160;CLOUD YOLU &#160;— &#160;kurum dışı, kontrollü &#160;</text>
</g>
<g id="clust3" class="cluster">
<title>cluster_onprem</title>
<path fill="#f0fdf4" stroke="#16a34a" stroke-width="2.2" d="M345,-23C345,-23 665,-23 665,-23 671,-23 677,-29 677,-35 677,-35 677,-274 677,-274 677,-280 671,-286 665,-286 665,-286 345,-286 345,-286 339,-286 333,-280 333,-274 333,-274 333,-35 333,-35 333,-29 339,-23 345,-23"/>
<text text-anchor="middle" x="505" y="-271.6" font-family="Helvetica,sans-Serif" font-weight="bold" font-size="13.00" fill="#15803d"> &#160;ON&#45;PREM YOLU &#160;— &#160;kurum dışına çıkış YOK &#160;</text>
</g>
<!-- worker -->
<g id="node1" class="node">
<title>worker</title>
<polygon fill="#dbeafe" stroke="#2563eb" stroke-width="2.4" points="346.5,-956 129.5,-956 129.5,-889 346.5,-889 346.5,-956"/>
<text text-anchor="middle" x="238" y="-932.4" font-family="Helvetica,sans-Serif" font-size="12.00">WORKER</text>
<text text-anchor="middle" x="238" y="-919.4" font-family="Helvetica,sans-Serif" font-size="12.00">düşünen ajanlar</text>
<text text-anchor="middle" x="238" y="-906.4" font-family="Helvetica,sans-Serif" font-size="12.00">intake · analyst · reviewer&#39;lar</text>
</g>
<!-- pii -->
<g id="node3" class="node">
<title>pii</title>
<polygon fill="#ffffff" stroke="#dc2626" stroke-width="2.2" points="479.5,-813 236.5,-813 236.5,-749 479.5,-749 479.5,-813"/>
<text text-anchor="middle" x="358" y="-790.2" font-family="Helvetica,sans-Serif" font-size="11.00">① PII MASKELEME</text>
<text text-anchor="middle" x="358" y="-778.2" font-family="Helvetica,sans-Serif" font-size="11.00">alan + regex · reverse&#45;map</text>
<text text-anchor="middle" x="358" y="-766.2" font-family="Helvetica,sans-Serif" font-size="11.00">(cloud&#39;a giden her şeyde ZORUNLU)</text>
</g>
<!-- worker&#45;&gt;pii -->
<g id="edge6" class="edge">
<title>worker&#45;&gt;pii</title>
<path fill="none" stroke="#2563eb" stroke-width="2.2" d="M266.13,-888.79C275.76,-877.6 286.94,-864.61 298.11,-851.63"/>
<polygon fill="#2563eb" stroke="#2563eb" stroke-width="2.2" points="300.8,-853.86 304.67,-844 295.49,-849.3 300.8,-853.86"/>
<text text-anchor="middle" x="330.5" y="-855.2" font-family="Helvetica,sans-Serif" font-size="11.00"> &#160;JSON çağrı &#160;</text>
</g>
<!-- sandbox -->
<g id="node2" class="node">
<title>sandbox</title>
<polygon fill="#f3e8ff" stroke="#9333ea" stroke-width="2.4" points="571.5,-956 382.5,-956 382.5,-889 571.5,-889 571.5,-956"/>
<text text-anchor="middle" x="477" y="-932.4" font-family="Helvetica,sans-Serif" font-size="12.00">SANDBOX</text>
<text text-anchor="middle" x="477" y="-919.4" font-family="Helvetica,sans-Serif" font-size="12.00">Agent SDK oturumları</text>
<text text-anchor="middle" x="477" y="-906.4" font-family="Helvetica,sans-Serif" font-size="12.00">engineer · test&#45;engineer</text>
</g>
<!-- sandbox&#45;&gt;pii -->
<g id="edge7" class="edge">
<title>sandbox&#45;&gt;pii</title>
<path fill="none" stroke="#9333ea" stroke-width="2.2" d="M449.1,-888.79C439.55,-877.6 428.47,-864.61 417.39,-851.63"/>
<polygon fill="#9333ea" stroke="#9333ea" stroke-width="2.2" points="420.04,-849.33 410.89,-844 414.71,-853.88 420.04,-849.33"/>
<text text-anchor="middle" x="479" y="-855.2" font-family="Helvetica,sans-Serif" font-size="11.00"> &#160;Agent SDK trafiği &#160;</text>
</g>
<!-- policy -->
<g id="node4" class="node">
<title>policy</title>
<polygon fill="#ffffff" stroke="#d97706" stroke-width="2.6" points="506,-698 210,-698 210,-597 506,-597 506,-698"/>
<text text-anchor="middle" x="358" y="-675.2" font-family="Helvetica,sans-Serif" font-size="11.00">② YÖNLENDİRME POLİTİKASI &#160;(yaml konfig)</text>
<text text-anchor="middle" x="358" y="-650.2" font-family="Helvetica,sans-Serif" font-size="11.00">veri sınıfı &#39;gizli&#39; &#160;→ &#160;on&#45;prem</text>
<text text-anchor="middle" x="358" y="-638.2" font-family="Helvetica,sans-Serif" font-size="11.00">rol = intake (ucuz iş) &#160;→ &#160;küçük model</text>
<text text-anchor="middle" x="358" y="-626.2" font-family="Helvetica,sans-Serif" font-size="11.00">varsayılan &#160;→ &#160;cloud Claude</text>
<text text-anchor="middle" x="358" y="-614.2" font-family="Helvetica,sans-Serif" font-size="11.00">cloud erişilemez &#160;→ &#160;on&#45;prem fallback (uyarılı)</text>
</g>
<!-- pii&#45;&gt;policy -->
<g id="edge1" class="edge">
<title>pii&#45;&gt;policy</title>
<path fill="none" stroke="#d97706" stroke-width="2" d="M358,-748.84C358,-736.67 358,-722.31 358,-708.3"/>
<polygon fill="#d97706" stroke="#d97706" stroke-width="2" points="361.5,-708.2 358,-698.2 354.5,-708.2 361.5,-708.2"/>
</g>
<!-- guard -->
<g id="node5" class="node">
<title>guard</title>
<polygon fill="#ffffff" stroke="#d97706" stroke-width="2.2" points="517,-546 199,-546 199,-470 517,-470 517,-546"/>
<text text-anchor="middle" x="358" y="-523.2" font-family="Helvetica,sans-Serif" font-size="11.00">③ KORUMALAR</text>
<text text-anchor="middle" x="358" y="-511.2" font-family="Helvetica,sans-Serif" font-size="11.00">atomik rate limit (RPM/TPM)</text>
<text text-anchor="middle" x="358" y="-499.2" font-family="Helvetica,sans-Serif" font-size="11.00">bütçe: workflow + aylık — TEK doğruluk kaynağı</text>
<text text-anchor="middle" x="358" y="-487.2" font-family="Helvetica,sans-Serif" font-size="11.00">fiyat tablosu konfigde · bilinmeyen model = HATA</text>
</g>
<!-- policy&#45;&gt;guard -->
<g id="edge2" class="edge">
<title>policy&#45;&gt;guard</title>
<path fill="none" stroke="#d97706" stroke-width="2" d="M358,-596.86C358,-583.63 358,-569.37 358,-556.27"/>
<polygon fill="#d97706" stroke="#d97706" stroke-width="2" points="361.5,-556.05 358,-546.05 354.5,-556.05 361.5,-556.05"/>
</g>
<!-- logx -->
<g id="node6" class="node">
<title>logx</title>
<polygon fill="#ffffff" stroke="#d97706" stroke-width="2" points="482,-419 234,-419 234,-343 482,-343 482,-419"/>
<text text-anchor="middle" x="358" y="-396.2" font-family="Helvetica,sans-Serif" font-size="11.00">④ KAYIT</text>
<text text-anchor="middle" x="358" y="-384.2" font-family="Helvetica,sans-Serif" font-size="11.00">çağrı logu (maskeli) · token · maliyet</text>
<text text-anchor="middle" x="358" y="-372.2" font-family="Helvetica,sans-Serif" font-size="11.00">prompt cache yönetimi</text>
<text text-anchor="middle" x="358" y="-360.2" font-family="Helvetica,sans-Serif" font-size="11.00">StepExecution + audit</text>
</g>
<!-- guard&#45;&gt;logx -->
<g id="edge3" class="edge">
<title>guard&#45;&gt;logx</title>
<path fill="none" stroke="#d97706" stroke-width="2" d="M358,-469.83C358,-457.1 358,-442.68 358,-429.26"/>
<polygon fill="#d97706" stroke="#d97706" stroke-width="2" points="361.5,-429.24 358,-419.24 354.5,-429.24 361.5,-429.24"/>
</g>
<!-- proxy -->
<g id="node7" class="node">
<title>proxy</title>
<polygon fill="#ffffff" stroke="#dc2626" stroke-width="2.4" points="295,-250 127,-250 127,-186 295,-186 295,-250"/>
<text text-anchor="middle" x="211" y="-227.2" font-family="Helvetica,sans-Serif" font-size="11.00">EGRESS PROXY</text>
<text text-anchor="middle" x="211" y="-215.2" font-family="Helvetica,sans-Serif" font-size="11.00">allow&#45;list · loglu</text>
<text text-anchor="middle" x="211" y="-203.2" font-family="Helvetica,sans-Serif" font-size="11.00">kurum dışına TEK çıkış</text>
</g>
<!-- logx&#45;&gt;proxy -->
<g id="edge8" class="edge">
<title>logx&#45;&gt;proxy</title>
<path fill="none" stroke="#dc2626" stroke-width="2.4" d="M300.45,-335C294.36,-329.49 288.42,-323.76 283,-318 274.37,-308.82 265.88,-298.58 257.92,-288.26"/>
<polygon fill="#dc2626" stroke="#dc2626" stroke-width="2.4" points="260.48,-285.86 251.66,-280 254.9,-290.08 260.48,-285.86"/>
<text text-anchor="start" x="283" y="-309.2" font-family="Helvetica,sans-Serif" font-size="11.00" fill="#b91c1c"> &#160;cloud sınıfı çağrılar</text>
<text text-anchor="start" x="283" y="-297.2" font-family="Helvetica,sans-Serif" font-size="11.00" fill="#b91c1c"> &#160;(maskeli)</text>
</g>
<!-- vllm -->
<g id="node9" class="node">
<title>vllm</title>
<polygon fill="#ffffff" stroke="#16a34a" stroke-width="2.4" points="596.5,-256 347.5,-256 347.5,-180 596.5,-180 596.5,-256"/>
<text text-anchor="middle" x="472" y="-233.2" font-family="Helvetica,sans-Serif" font-size="11.00">vLLM SUNUCUSU &#160;(GPU)</text>
<text text-anchor="middle" x="472" y="-221.2" font-family="Helvetica,sans-Serif" font-size="11.00">OpenAI&#45;uyumlu API</text>
<text text-anchor="middle" x="472" y="-209.2" font-family="Helvetica,sans-Serif" font-size="11.00">açık kodlama modeli — PoC ile seçilir</text>
<text text-anchor="middle" x="472" y="-197.2" font-family="Helvetica,sans-Serif" font-size="11.00">(Qwen&#45;Coder / DeepSeek sınıfı)</text>
</g>
<!-- logx&#45;&gt;vllm -->
<g id="edge9" class="edge">
<title>logx&#45;&gt;vllm</title>
<path fill="none" stroke="#16a34a" stroke-width="2.4" d="M389.86,-335C398.84,-322.32 408.87,-308.16 418.74,-294.22"/>
<polygon fill="#16a34a" stroke="#16a34a" stroke-width="2.4" points="421.64,-296.18 424.56,-286 415.92,-292.14 421.64,-296.18"/>
<text text-anchor="start" x="418" y="-309.2" font-family="Helvetica,sans-Serif" font-size="11.00" fill="#15803d"> &#160;&#39;gizli&#39; veri sınıfı</text>
<text text-anchor="start" x="418" y="-297.2" font-family="Helvetica,sans-Serif" font-size="11.00" fill="#15803d"> &#160;+ fallback</text>
</g>
<!-- claude -->
<g id="node8" class="node">
<title>claude</title>
<polygon fill="#ffffff" stroke="#dc2626" stroke-width="2.4" points="308,-129 32,-129 32,-16 308,-16 308,-129"/>
<text text-anchor="middle" x="170" y="-106.2" font-family="Helvetica,sans-Serif" font-size="11.00">CLAUDE</text>
<text text-anchor="middle" x="170" y="-94.2" font-family="Helvetica,sans-Serif" font-size="11.00">Anthropic API / AWS Bedrock / GCP Vertex</text>
<text text-anchor="middle" x="170" y="-82.2" font-family="Helvetica,sans-Serif" font-size="11.00">(kurum sözleşmesine göre — açık soru)</text>
<text text-anchor="middle" x="170" y="-70.2" font-family="Helvetica,sans-Serif" font-size="11.00">ZDR / veri işleme sözleşmesi ön şart</text>
<text text-anchor="middle" x="170" y="-45.2" font-family="Helvetica,sans-Serif" font-size="11.00">düşünen roller: structured output</text>
<text text-anchor="middle" x="170" y="-33.2" font-family="Helvetica,sans-Serif" font-size="11.00">yapan roller: Agent SDK modelleri</text>
</g>
<!-- proxy&#45;&gt;claude -->
<g id="edge4" class="edge">
<title>proxy&#45;&gt;claude</title>
<path fill="none" stroke="#dc2626" stroke-width="2" d="M202.1,-185.86C198.18,-172.14 193.42,-155.47 188.77,-139.21"/>
<polygon fill="#dc2626" stroke="#dc2626" stroke-width="2" points="192.02,-137.82 185.91,-129.17 185.29,-139.75 192.02,-137.82"/>
</g>
<!-- uyari -->
<g id="node10" class="node">
<title>uyari</title>
<polygon fill="#fef3c7" stroke="#d97706" stroke-width="2" points="617.5,-114 344.5,-114 344.5,-31 617.5,-31 617.5,-114"/>
<text text-anchor="middle" x="481" y="-92" font-family="Helvetica,sans-Serif" font-size="10.00">⚠ KISIT</text>
<text text-anchor="middle" x="481" y="-81" font-family="Helvetica,sans-Serif" font-size="10.00">Agent SDK oturumları Claude gerektirir</text>
<text text-anchor="middle" x="481" y="-70" font-family="Helvetica,sans-Serif" font-size="10.00">&#39;gizli&#39; sınıf + yapan rol için MVP kararı:</text>
<text text-anchor="middle" x="481" y="-59" font-family="Helvetica,sans-Serif" font-size="10.00">ai&#45;assist moduna düş (AI önerir, insan uygular)</text>
<text text-anchor="middle" x="481" y="-48" font-family="Helvetica,sans-Serif" font-size="10.00">→ uyum ekibiyle netleşecek</text>
</g>
<!-- vllm&#45;&gt;uyari -->
</g>
</svg>
